# Rounded edges; metres; smooth vertex normals.
v -0.7220415 -0.0245415 -0.2370415
v -0.7223729 -0.0248729 -0.2362796
v -0.7228048 -0.0253048 -0.2346817
v -0.7229497 -0.0254497 -0.2330000
v -0.7229497 -0.0254497 0.2330000
v -0.7228048 -0.0253048 0.2346817
v -0.7223729 -0.0248729 0.2362796
v -0.7220415 -0.0245415 0.2370415
v -0.7223729 -0.0237796 -0.2373729
v -0.7228020 -0.0241015 -0.2366015
v -0.7233926 -0.0245444 -0.2348874
v -0.7236000 -0.0247000 -0.2330000
v -0.7236000 -0.0247000 0.2330000
v -0.7233926 -0.0245444 0.2348874
v -0.7228020 -0.0241015 0.2366015
v -0.7223729 -0.0237796 0.2373729
v -0.7228048 -0.0221817 -0.2378048
v -0.7233926 -0.0223874 -0.2370444
v -0.7242736 -0.0226957 -0.2351957
v -0.7246070 -0.0228125 -0.2330000
v -0.7246070 -0.0228125 0.2330000
v -0.7242736 -0.0226957 0.2351957
v -0.7233926 -0.0223874 0.2370444
v -0.7228048 -0.0221817 0.2378048
v -0.7229497 -0.0205000 -0.2379497
v -0.7236000 -0.0205000 -0.2372000
v -0.7246070 -0.0205000 -0.2353125
v -0.7250000 -0.0205000 -0.2330000
v -0.7250000 -0.0205000 0.2330000
v -0.7246070 -0.0205000 0.2353125
v -0.7236000 -0.0205000 0.2372000
v -0.7229497 -0.0205000 0.2379497
v -0.7229497 0.0205000 -0.2379497
v -0.7236000 0.0205000 -0.2372000
v -0.7246070 0.0205000 -0.2353125
v -0.7250000 0.0205000 -0.2330000
v -0.7250000 0.0205000 0.2330000
v -0.7246070 0.0205000 0.2353125
v -0.7236000 0.0205000 0.2372000
v -0.7229497 0.0205000 0.2379497
v -0.7228048 0.0221817 -0.2378048
v -0.7233926 0.0223874 -0.2370444
v -0.7242736 0.0226957 -0.2351957
v -0.7246070 0.0228125 -0.2330000
v -0.7246070 0.0228125 0.2330000
v -0.7242736 0.0226957 0.2351957
v -0.7233926 0.0223874 0.2370444
v -0.7228048 0.0221817 0.2378048
v -0.7223729 0.0237796 -0.2373729
v -0.7228020 0.0241015 -0.2366015
v -0.7233926 0.0245444 -0.2348874
v -0.7236000 0.0247000 -0.2330000
v -0.7236000 0.0247000 0.2330000
v -0.7233926 0.0245444 0.2348874
v -0.7228020 0.0241015 0.2366015
v -0.7223729 0.0237796 0.2373729
v -0.7220415 0.0245415 -0.2370415
v -0.7223729 0.0248729 -0.2362796
v -0.7228048 0.0253048 -0.2346817
v -0.7229497 0.0254497 -0.2330000
v -0.7229497 0.0254497 0.2330000
v -0.7228048 0.0253048 0.2346817
v -0.7223729 0.0248729 0.2362796
v -0.7220415 0.0245415 0.2370415
v 0.7220415 -0.0245415 -0.2370415
v 0.7223729 -0.0248729 -0.2362796
v 0.7228048 -0.0253048 -0.2346817
v 0.7229497 -0.0254497 -0.2330000
v 0.7229497 -0.0254497 0.2330000
v 0.7228048 -0.0253048 0.2346817
v 0.7223729 -0.0248729 0.2362796
v 0.7220415 -0.0245415 0.2370415
v 0.7223729 -0.0237796 -0.2373729
v 0.7228020 -0.0241015 -0.2366015
v 0.7233926 -0.0245444 -0.2348874
v 0.7236000 -0.0247000 -0.2330000
v 0.7236000 -0.0247000 0.2330000
v 0.7233926 -0.0245444 0.2348874
v 0.7228020 -0.0241015 0.2366015
v 0.7223729 -0.0237796 0.2373729
v 0.7228048 -0.0221817 -0.2378048
v 0.7233926 -0.0223874 -0.2370444
v 0.7242736 -0.0226957 -0.2351957
v 0.7246070 -0.0228125 -0.2330000
v 0.7246070 -0.0228125 0.2330000
v 0.7242736 -0.0226957 0.2351957
v 0.7233926 -0.0223874 0.2370444
v 0.7228048 -0.0221817 0.2378048
v 0.7229497 -0.0205000 -0.2379497
v 0.7236000 -0.0205000 -0.2372000
v 0.7246070 -0.0205000 -0.2353125
v 0.7250000 -0.0205000 -0.2330000
v 0.7250000 -0.0205000 0.2330000
v 0.7246070 -0.0205000 0.2353125
v 0.7236000 -0.0205000 0.2372000
v 0.7229497 -0.0205000 0.2379497
v 0.7229497 0.0205000 -0.2379497
v 0.7236000 0.0205000 -0.2372000
v 0.7246070 0.0205000 -0.2353125
v 0.7250000 0.0205000 -0.2330000
v 0.7250000 0.0205000 0.2330000
v 0.7246070 0.0205000 0.2353125
v 0.7236000 0.0205000 0.2372000
v 0.7229497 0.0205000 0.2379497
v 0.7228048 0.0221817 -0.2378048
v 0.7233926 0.0223874 -0.2370444
v 0.7242736 0.0226957 -0.2351957
v 0.7246070 0.0228125 -0.2330000
v 0.7246070 0.0228125 0.2330000
v 0.7242736 0.0226957 0.2351957
v 0.7233926 0.0223874 0.2370444
v 0.7228048 0.0221817 0.2378048
v 0.7223729 0.0237796 -0.2373729
v 0.7228020 0.0241015 -0.2366015
v 0.7233926 0.0245444 -0.2348874
v 0.7236000 0.0247000 -0.2330000
v 0.7236000 0.0247000 0.2330000
v 0.7233926 0.0245444 0.2348874
v 0.7228020 0.0241015 0.2366015
v 0.7223729 0.0237796 0.2373729
v 0.7220415 0.0245415 -0.2370415
v 0.7223729 0.0248729 -0.2362796
v 0.7228048 0.0253048 -0.2346817
v 0.7229497 0.0254497 -0.2330000
v 0.7229497 0.0254497 0.2330000
v 0.7228048 0.0253048 0.2346817
v 0.7223729 0.0248729 0.2362796
v 0.7220415 0.0245415 0.2370415
v -0.7220415 -0.0245415 -0.2370415
v -0.7212796 -0.0248729 -0.2373729
v -0.7196817 -0.0253048 -0.2378048
v -0.7180000 -0.0254497 -0.2379497
v 0.7180000 -0.0254497 -0.2379497
v 0.7196817 -0.0253048 -0.2378048
v 0.7212796 -0.0248729 -0.2373729
v 0.7220415 -0.0245415 -0.2370415
v -0.7223729 -0.0248729 -0.2362796
v -0.7216015 -0.0253020 -0.2366015
v -0.7198874 -0.0258926 -0.2370444
v -0.7180000 -0.0261000 -0.2372000
v 0.7180000 -0.0261000 -0.2372000
v 0.7198874 -0.0258926 -0.2370444
v 0.7216015 -0.0253020 -0.2366015
v 0.7223729 -0.0248729 -0.2362796
v -0.7228048 -0.0253048 -0.2346817
v -0.7220444 -0.0258926 -0.2348874
v -0.7201957 -0.0267736 -0.2351957
v -0.7180000 -0.0271070 -0.2353125
v 0.7180000 -0.0271070 -0.2353125
v 0.7201957 -0.0267736 -0.2351957
v 0.7220444 -0.0258926 -0.2348874
v 0.7228048 -0.0253048 -0.2346817
v -0.7229497 -0.0254497 -0.2330000
v -0.7222000 -0.0261000 -0.2330000
v -0.7203125 -0.0271070 -0.2330000
v -0.7180000 -0.0275000 -0.2330000
v 0.7180000 -0.0275000 -0.2330000
v 0.7203125 -0.0271070 -0.2330000
v 0.7222000 -0.0261000 -0.2330000
v 0.7229497 -0.0254497 -0.2330000
v -0.7229497 -0.0254497 0.2330000
v -0.7222000 -0.0261000 0.2330000
v -0.7203125 -0.0271070 0.2330000
v -0.7180000 -0.0275000 0.2330000
v 0.7180000 -0.0275000 0.2330000
v 0.7203125 -0.0271070 0.2330000
v 0.7222000 -0.0261000 0.2330000
v 0.7229497 -0.0254497 0.2330000
v -0.7228048 -0.0253048 0.2346817
v -0.7220444 -0.0258926 0.2348874
v -0.7201957 -0.0267736 0.2351957
v -0.7180000 -0.0271070 0.2353125
v 0.7180000 -0.0271070 0.2353125
v 0.7201957 -0.0267736 0.2351957
v 0.7220444 -0.0258926 0.2348874
v 0.7228048 -0.0253048 0.2346817
v -0.7223729 -0.0248729 0.2362796
v -0.7216015 -0.0253020 0.2366015
v -0.7198874 -0.0258926 0.2370444
v -0.7180000 -0.0261000 0.2372000
v 0.7180000 -0.0261000 0.2372000
v 0.7198874 -0.0258926 0.2370444
v 0.7216015 -0.0253020 0.2366015
v 0.7223729 -0.0248729 0.2362796
v -0.7220415 -0.0245415 0.2370415
v -0.7212796 -0.0248729 0.2373729
v -0.7196817 -0.0253048 0.2378048
v -0.7180000 -0.0254497 0.2379497
v 0.7180000 -0.0254497 0.2379497
v 0.7196817 -0.0253048 0.2378048
v 0.7212796 -0.0248729 0.2373729
v 0.7220415 -0.0245415 0.2370415
v -0.7220415 0.0245415 -0.2370415
v -0.7212796 0.0248729 -0.2373729
v -0.7196817 0.0253048 -0.2378048
v -0.7180000 0.0254497 -0.2379497
v 0.7180000 0.0254497 -0.2379497
v 0.7196817 0.0253048 -0.2378048
v 0.7212796 0.0248729 -0.2373729
v 0.7220415 0.0245415 -0.2370415
v -0.7223729 0.0248729 -0.2362796
v -0.7216015 0.0253020 -0.2366015
v -0.7198874 0.0258926 -0.2370444
v -0.7180000 0.0261000 -0.2372000
v 0.7180000 0.0261000 -0.2372000
v 0.7198874 0.0258926 -0.2370444
v 0.7216015 0.0253020 -0.2366015
v 0.7223729 0.0248729 -0.2362796
v -0.7228048 0.0253048 -0.2346817
v -0.7220444 0.0258926 -0.2348874
v -0.7201957 0.0267736 -0.2351957
v -0.7180000 0.0271070 -0.2353125
v 0.7180000 0.0271070 -0.2353125
v 0.7201957 0.0267736 -0.2351957
v 0.7220444 0.0258926 -0.2348874
v 0.7228048 0.0253048 -0.2346817
v -0.7229497 0.0254497 -0.2330000
v -0.7222000 0.0261000 -0.2330000
v -0.7203125 0.0271070 -0.2330000
v -0.7180000 0.0275000 -0.2330000
v 0.7180000 0.0275000 -0.2330000
v 0.7203125 0.0271070 -0.2330000
v 0.7222000 0.0261000 -0.2330000
v 0.7229497 0.0254497 -0.2330000
v -0.7229497 0.0254497 0.2330000
v -0.7222000 0.0261000 0.2330000
v -0.7203125 0.0271070 0.2330000
v -0.7180000 0.0275000 0.2330000
v 0.7180000 0.0275000 0.2330000
v 0.7203125 0.0271070 0.2330000
v 0.7222000 0.0261000 0.2330000
v 0.7229497 0.0254497 0.2330000
v -0.7228048 0.0253048 0.2346817
v -0.7220444 0.0258926 0.2348874
v -0.7201957 0.0267736 0.2351957
v -0.7180000 0.0271070 0.2353125
v 0.7180000 0.0271070 0.2353125
v 0.7201957 0.0267736 0.2351957
v 0.7220444 0.0258926 0.2348874
v 0.7228048 0.0253048 0.2346817
v -0.7223729 0.0248729 0.2362796
v -0.7216015 0.0253020 0.2366015
v -0.7198874 0.0258926 0.2370444
v -0.7180000 0.0261000 0.2372000
v 0.7180000 0.0261000 0.2372000
v 0.7198874 0.0258926 0.2370444
v 0.7216015 0.0253020 0.2366015
v 0.7223729 0.0248729 0.2362796
v -0.7220415 0.0245415 0.2370415
v -0.7212796 0.0248729 0.2373729
v -0.7196817 0.0253048 0.2378048
v -0.7180000 0.0254497 0.2379497
v 0.7180000 0.0254497 0.2379497
v 0.7196817 0.0253048 0.2378048
v 0.7212796 0.0248729 0.2373729
v 0.7220415 0.0245415 0.2370415
v -0.7220415 -0.0245415 -0.2370415
v -0.7223729 -0.0237796 -0.2373729
v -0.7228048 -0.0221817 -0.2378048
v -0.7229497 -0.0205000 -0.2379497
v -0.7229497 0.0205000 -0.2379497
v -0.7228048 0.0221817 -0.2378048
v -0.7223729 0.0237796 -0.2373729
v -0.7220415 0.0245415 -0.2370415
v -0.7212796 -0.0248729 -0.2373729
v -0.7216015 -0.0241015 -0.2378020
v -0.7220444 -0.0223874 -0.2383926
v -0.7222000 -0.0205000 -0.2386000
v -0.7222000 0.0205000 -0.2386000
v -0.7220444 0.0223874 -0.2383926
v -0.7216015 0.0241015 -0.2378020
v -0.7212796 0.0248729 -0.2373729
v -0.7196817 -0.0253048 -0.2378048
v -0.7198874 -0.0245444 -0.2383926
v -0.7201957 -0.0226957 -0.2392736
v -0.7203125 -0.0205000 -0.2396070
v -0.7203125 0.0205000 -0.2396070
v -0.7201957 0.0226957 -0.2392736
v -0.7198874 0.0245444 -0.2383926
v -0.7196817 0.0253048 -0.2378048
v -0.7180000 -0.0254497 -0.2379497
v -0.7180000 -0.0247000 -0.2386000
v -0.7180000 -0.0228125 -0.2396070
v -0.7180000 -0.0205000 -0.2400000
v -0.7180000 0.0205000 -0.2400000
v -0.7180000 0.0228125 -0.2396070
v -0.7180000 0.0247000 -0.2386000
v -0.7180000 0.0254497 -0.2379497
v 0.7180000 -0.0254497 -0.2379497
v 0.7180000 -0.0247000 -0.2386000
v 0.7180000 -0.0228125 -0.2396070
v 0.7180000 -0.0205000 -0.2400000
v 0.7180000 0.0205000 -0.2400000
v 0.7180000 0.0228125 -0.2396070
v 0.7180000 0.0247000 -0.2386000
v 0.7180000 0.0254497 -0.2379497
v 0.7196817 -0.0253048 -0.2378048
v 0.7198874 -0.0245444 -0.2383926
v 0.7201957 -0.0226957 -0.2392736
v 0.7203125 -0.0205000 -0.2396070
v 0.7203125 0.0205000 -0.2396070
v 0.7201957 0.0226957 -0.2392736
v 0.7198874 0.0245444 -0.2383926
v 0.7196817 0.0253048 -0.2378048
v 0.7212796 -0.0248729 -0.2373729
v 0.7216015 -0.0241015 -0.2378020
v 0.7220444 -0.0223874 -0.2383926
v 0.7222000 -0.0205000 -0.2386000
v 0.7222000 0.0205000 -0.2386000
v 0.7220444 0.0223874 -0.2383926
v 0.7216015 0.0241015 -0.2378020
v 0.7212796 0.0248729 -0.2373729
v 0.7220415 -0.0245415 -0.2370415
v 0.7223729 -0.0237796 -0.2373729
v 0.7228048 -0.0221817 -0.2378048
v 0.7229497 -0.0205000 -0.2379497
v 0.7229497 0.0205000 -0.2379497
v 0.7228048 0.0221817 -0.2378048
v 0.7223729 0.0237796 -0.2373729
v 0.7220415 0.0245415 -0.2370415
v -0.7220415 -0.0245415 0.2370415
v -0.7223729 -0.0237796 0.2373729
v -0.7228048 -0.0221817 0.2378048
v -0.7229497 -0.0205000 0.2379497
v -0.7229497 0.0205000 0.2379497
v -0.7228048 0.0221817 0.2378048
v -0.7223729 0.0237796 0.2373729
v -0.7220415 0.0245415 0.2370415
v -0.7212796 -0.0248729 0.2373729
v -0.7216015 -0.0241015 0.2378020
v -0.7220444 -0.0223874 0.2383926
v -0.7222000 -0.0205000 0.2386000
v -0.7222000 0.0205000 0.2386000
v -0.7220444 0.0223874 0.2383926
v -0.7216015 0.0241015 0.2378020
v -0.7212796 0.0248729 0.2373729
v -0.7196817 -0.0253048 0.2378048
v -0.7198874 -0.0245444 0.2383926
v -0.7201957 -0.0226957 0.2392736
v -0.7203125 -0.0205000 0.2396070
v -0.7203125 0.0205000 0.2396070
v -0.7201957 0.0226957 0.2392736
v -0.7198874 0.0245444 0.2383926
v -0.7196817 0.0253048 0.2378048
v -0.7180000 -0.0254497 0.2379497
v -0.7180000 -0.0247000 0.2386000
v -0.7180000 -0.0228125 0.2396070
v -0.7180000 -0.0205000 0.2400000
v -0.7180000 0.0205000 0.2400000
v -0.7180000 0.0228125 0.2396070
v -0.7180000 0.0247000 0.2386000
v -0.7180000 0.0254497 0.2379497
v 0.7180000 -0.0254497 0.2379497
v 0.7180000 -0.0247000 0.2386000
v 0.7180000 -0.0228125 0.2396070
v 0.7180000 -0.0205000 0.2400000
v 0.7180000 0.0205000 0.2400000
v 0.7180000 0.0228125 0.2396070
v 0.7180000 0.0247000 0.2386000
v 0.7180000 0.0254497 0.2379497
v 0.7196817 -0.0253048 0.2378048
v 0.7198874 -0.0245444 0.2383926
v 0.7201957 -0.0226957 0.2392736
v 0.7203125 -0.0205000 0.2396070
v 0.7203125 0.0205000 0.2396070
v 0.7201957 0.0226957 0.2392736
v 0.7198874 0.0245444 0.2383926
v 0.7196817 0.0253048 0.2378048
v 0.7212796 -0.0248729 0.2373729
v 0.7216015 -0.0241015 0.2378020
v 0.7220444 -0.0223874 0.2383926
v 0.7222000 -0.0205000 0.2386000
v 0.7222000 0.0205000 0.2386000
v 0.7220444 0.0223874 0.2383926
v 0.7216015 0.0241015 0.2378020
v 0.7212796 0.0248729 0.2373729
v 0.7220415 -0.0245415 0.2370415
v 0.7223729 -0.0237796 0.2373729
v 0.7228048 -0.0221817 0.2378048
v 0.7229497 -0.0205000 0.2379497
v 0.7229497 0.0205000 0.2379497
v 0.7228048 0.0221817 0.2378048
v 0.7223729 0.0237796 0.2373729
v 0.7220415 0.0245415 0.2370415
vn -0.5773503 -0.5773503 -0.5773503
vn -0.6246950 -0.6246950 -0.4685213
vn -0.6863982 -0.6863982 -0.2402394
vn -0.7071068 -0.7071068 0.0000000
vn -0.7071068 -0.7071068 0.0000000
vn -0.6863982 -0.6863982 0.2402394
vn -0.6246950 -0.6246950 0.4685213
vn -0.5773503 -0.5773503 0.5773503
vn -0.6246950 -0.4685213 -0.6246950
vn -0.6859943 -0.5144958 -0.5144958
vn -0.7703712 -0.5777784 -0.2696299
vn -0.8000000 -0.6000000 0.0000000
vn -0.8000000 -0.6000000 0.0000000
vn -0.7703712 -0.5777784 0.2696299
vn -0.6859943 -0.5144958 0.5144958
vn -0.6246950 -0.4685213 0.6246950
vn -0.6863982 -0.2402394 -0.6863982
vn -0.7703712 -0.2696299 -0.5777784
vn -0.8962214 -0.3136775 -0.3136775
vn -0.9438584 -0.3303504 0.0000000
vn -0.9438584 -0.3303504 0.0000000
vn -0.8962214 -0.3136775 0.3136775
vn -0.7703712 -0.2696299 0.5777784
vn -0.6863982 -0.2402394 0.6863982
vn -0.7071068 0.0000000 -0.7071068
vn -0.8000000 0.0000000 -0.6000000
vn -0.9438584 0.0000000 -0.3303504
vn -1.0000000 0.0000000 0.0000000
vn -1.0000000 0.0000000 0.0000000
vn -0.9438584 0.0000000 0.3303504
vn -0.8000000 0.0000000 0.6000000
vn -0.7071068 0.0000000 0.7071068
vn -0.7071068 0.0000000 -0.7071068
vn -0.8000000 0.0000000 -0.6000000
vn -0.9438584 0.0000000 -0.3303504
vn -1.0000000 0.0000000 0.0000000
vn -1.0000000 0.0000000 0.0000000
vn -0.9438584 0.0000000 0.3303504
vn -0.8000000 0.0000000 0.6000000
vn -0.7071068 0.0000000 0.7071068
vn -0.6863982 0.2402394 -0.6863982
vn -0.7703712 0.2696299 -0.5777784
vn -0.8962214 0.3136775 -0.3136775
vn -0.9438584 0.3303504 0.0000000
vn -0.9438584 0.3303504 0.0000000
vn -0.8962214 0.3136775 0.3136775
vn -0.7703712 0.2696299 0.5777784
vn -0.6863982 0.2402394 0.6863982
vn -0.6246950 0.4685213 -0.6246950
vn -0.6859943 0.5144958 -0.5144958
vn -0.7703712 0.5777784 -0.2696299
vn -0.8000000 0.6000000 0.0000000
vn -0.8000000 0.6000000 0.0000000
vn -0.7703712 0.5777784 0.2696299
vn -0.6859943 0.5144958 0.5144958
vn -0.6246950 0.4685213 0.6246950
vn -0.5773503 0.5773503 -0.5773503
vn -0.6246950 0.6246950 -0.4685213
vn -0.6863982 0.6863982 -0.2402394
vn -0.7071068 0.7071068 0.0000000
vn -0.7071068 0.7071068 0.0000000
vn -0.6863982 0.6863982 0.2402394
vn -0.6246950 0.6246950 0.4685213
vn -0.5773503 0.5773503 0.5773503
vn 0.5773503 -0.5773503 -0.5773503
vn 0.6246950 -0.6246950 -0.4685213
vn 0.6863982 -0.6863982 -0.2402394
vn 0.7071068 -0.7071068 0.0000000
vn 0.7071068 -0.7071068 0.0000000
vn 0.6863982 -0.6863982 0.2402394
vn 0.6246950 -0.6246950 0.4685213
vn 0.5773503 -0.5773503 0.5773503
vn 0.6246950 -0.4685213 -0.6246950
vn 0.6859943 -0.5144958 -0.5144958
vn 0.7703712 -0.5777784 -0.2696299
vn 0.8000000 -0.6000000 0.0000000
vn 0.8000000 -0.6000000 0.0000000
vn 0.7703712 -0.5777784 0.2696299
vn 0.6859943 -0.5144958 0.5144958
vn 0.6246950 -0.4685213 0.6246950
vn 0.6863982 -0.2402394 -0.6863982
vn 0.7703712 -0.2696299 -0.5777784
vn 0.8962214 -0.3136775 -0.3136775
vn 0.9438584 -0.3303504 0.0000000
vn 0.9438584 -0.3303504 0.0000000
vn 0.8962214 -0.3136775 0.3136775
vn 0.7703712 -0.2696299 0.5777784
vn 0.6863982 -0.2402394 0.6863982
vn 0.7071068 0.0000000 -0.7071068
vn 0.8000000 0.0000000 -0.6000000
vn 0.9438584 0.0000000 -0.3303504
vn 1.0000000 0.0000000 0.0000000
vn 1.0000000 0.0000000 0.0000000
vn 0.9438584 0.0000000 0.3303504
vn 0.8000000 0.0000000 0.6000000
vn 0.7071068 0.0000000 0.7071068
vn 0.7071068 0.0000000 -0.7071068
vn 0.8000000 0.0000000 -0.6000000
vn 0.9438584 0.0000000 -0.3303504
vn 1.0000000 0.0000000 0.0000000
vn 1.0000000 0.0000000 0.0000000
vn 0.9438584 0.0000000 0.3303504
vn 0.8000000 0.0000000 0.6000000
vn 0.7071068 0.0000000 0.7071068
vn 0.6863982 0.2402394 -0.6863982
vn 0.7703712 0.2696299 -0.5777784
vn 0.8962214 0.3136775 -0.3136775
vn 0.9438584 0.3303504 0.0000000
vn 0.9438584 0.3303504 0.0000000
vn 0.8962214 0.3136775 0.3136775
vn 0.7703712 0.2696299 0.5777784
vn 0.6863982 0.2402394 0.6863982
vn 0.6246950 0.4685213 -0.6246950
vn 0.6859943 0.5144958 -0.5144958
vn 0.7703712 0.5777784 -0.2696299
vn 0.8000000 0.6000000 0.0000000
vn 0.8000000 0.6000000 0.0000000
vn 0.7703712 0.5777784 0.2696299
vn 0.6859943 0.5144958 0.5144958
vn 0.6246950 0.4685213 0.6246950
vn 0.5773503 0.5773503 -0.5773503
vn 0.6246950 0.6246950 -0.4685213
vn 0.6863982 0.6863982 -0.2402394
vn 0.7071068 0.7071068 0.0000000
vn 0.7071068 0.7071068 0.0000000
vn 0.6863982 0.6863982 0.2402394
vn 0.6246950 0.6246950 0.4685213
vn 0.5773503 0.5773503 0.5773503
vn -0.5773503 -0.5773503 -0.5773503
vn -0.4685213 -0.6246950 -0.6246950
vn -0.2402394 -0.6863982 -0.6863982
vn 0.0000000 -0.7071068 -0.7071068
vn 0.0000000 -0.7071068 -0.7071068
vn 0.2402394 -0.6863982 -0.6863982
vn 0.4685213 -0.6246950 -0.6246950
vn 0.5773503 -0.5773503 -0.5773503
vn -0.6246950 -0.6246950 -0.4685213
vn -0.5144958 -0.6859943 -0.5144958
vn -0.2696299 -0.7703712 -0.5777784
vn 0.0000000 -0.8000000 -0.6000000
vn 0.0000000 -0.8000000 -0.6000000
vn 0.2696299 -0.7703712 -0.5777784
vn 0.5144958 -0.6859943 -0.5144958
vn 0.6246950 -0.6246950 -0.4685213
vn -0.6863982 -0.6863982 -0.2402394
vn -0.5777784 -0.7703712 -0.2696299
vn -0.3136775 -0.8962214 -0.3136775
vn 0.0000000 -0.9438584 -0.3303504
vn 0.0000000 -0.9438584 -0.3303504
vn 0.3136775 -0.8962214 -0.3136775
vn 0.5777784 -0.7703712 -0.2696299
vn 0.6863982 -0.6863982 -0.2402394
vn -0.7071068 -0.7071068 0.0000000
vn -0.6000000 -0.8000000 0.0000000
vn -0.3303504 -0.9438584 0.0000000
vn 0.0000000 -1.0000000 0.0000000
vn 0.0000000 -1.0000000 0.0000000
vn 0.3303504 -0.9438584 0.0000000
vn 0.6000000 -0.8000000 0.0000000
vn 0.7071068 -0.7071068 0.0000000
vn -0.7071068 -0.7071068 0.0000000
vn -0.6000000 -0.8000000 0.0000000
vn -0.3303504 -0.9438584 0.0000000
vn 0.0000000 -1.0000000 0.0000000
vn 0.0000000 -1.0000000 0.0000000
vn 0.3303504 -0.9438584 0.0000000
vn 0.6000000 -0.8000000 0.0000000
vn 0.7071068 -0.7071068 0.0000000
vn -0.6863982 -0.6863982 0.2402394
vn -0.5777784 -0.7703712 0.2696299
vn -0.3136775 -0.8962214 0.3136775
vn 0.0000000 -0.9438584 0.3303504
vn 0.0000000 -0.9438584 0.3303504
vn 0.3136775 -0.8962214 0.3136775
vn 0.5777784 -0.7703712 0.2696299
vn 0.6863982 -0.6863982 0.2402394
vn -0.6246950 -0.6246950 0.4685213
vn -0.5144958 -0.6859943 0.5144958
vn -0.2696299 -0.7703712 0.5777784
vn 0.0000000 -0.8000000 0.6000000
vn 0.0000000 -0.8000000 0.6000000
vn 0.2696299 -0.7703712 0.5777784
vn 0.5144958 -0.6859943 0.5144958
vn 0.6246950 -0.6246950 0.4685213
vn -0.5773503 -0.5773503 0.5773503
vn -0.4685213 -0.6246950 0.6246950
vn -0.2402394 -0.6863982 0.6863982
vn 0.0000000 -0.7071068 0.7071068
vn 0.0000000 -0.7071068 0.7071068
vn 0.2402394 -0.6863982 0.6863982
vn 0.4685213 -0.6246950 0.6246950
vn 0.5773503 -0.5773503 0.5773503
vn -0.5773503 0.5773503 -0.5773503
vn -0.4685213 0.6246950 -0.6246950
vn -0.2402394 0.6863982 -0.6863982
vn 0.0000000 0.7071068 -0.7071068
vn 0.0000000 0.7071068 -0.7071068
vn 0.2402394 0.6863982 -0.6863982
vn 0.4685213 0.6246950 -0.6246950
vn 0.5773503 0.5773503 -0.5773503
vn -0.6246950 0.6246950 -0.4685213
vn -0.5144958 0.6859943 -0.5144958
vn -0.2696299 0.7703712 -0.5777784
vn 0.0000000 0.8000000 -0.6000000
vn 0.0000000 0.8000000 -0.6000000
vn 0.2696299 0.7703712 -0.5777784
vn 0.5144958 0.6859943 -0.5144958
vn 0.6246950 0.6246950 -0.4685213
vn -0.6863982 0.6863982 -0.2402394
vn -0.5777784 0.7703712 -0.2696299
vn -0.3136775 0.8962214 -0.3136775
vn 0.0000000 0.9438584 -0.3303504
vn 0.0000000 0.9438584 -0.3303504
vn 0.3136775 0.8962214 -0.3136775
vn 0.5777784 0.7703712 -0.2696299
vn 0.6863982 0.6863982 -0.2402394
vn -0.7071068 0.7071068 0.0000000
vn -0.6000000 0.8000000 0.0000000
vn -0.3303504 0.9438584 0.0000000
vn 0.0000000 1.0000000 0.0000000
vn 0.0000000 1.0000000 0.0000000
vn 0.3303504 0.9438584 0.0000000
vn 0.6000000 0.8000000 0.0000000
vn 0.7071068 0.7071068 0.0000000
vn -0.7071068 0.7071068 0.0000000
vn -0.6000000 0.8000000 0.0000000
vn -0.3303504 0.9438584 0.0000000
vn 0.0000000 1.0000000 0.0000000
vn 0.0000000 1.0000000 0.0000000
vn 0.3303504 0.9438584 0.0000000
vn 0.6000000 0.8000000 0.0000000
vn 0.7071068 0.7071068 0.0000000
vn -0.6863982 0.6863982 0.2402394
vn -0.5777784 0.7703712 0.2696299
vn -0.3136775 0.8962214 0.3136775
vn 0.0000000 0.9438584 0.3303504
vn 0.0000000 0.9438584 0.3303504
vn 0.3136775 0.8962214 0.3136775
vn 0.5777784 0.7703712 0.2696299
vn 0.6863982 0.6863982 0.2402394
vn -0.6246950 0.6246950 0.4685213
vn -0.5144958 0.6859943 0.5144958
vn -0.2696299 0.7703712 0.5777784
vn 0.0000000 0.8000000 0.6000000
vn 0.0000000 0.8000000 0.6000000
vn 0.2696299 0.7703712 0.5777784
vn 0.5144958 0.6859943 0.5144958
vn 0.6246950 0.6246950 0.4685213
vn -0.5773503 0.5773503 0.5773503
vn -0.4685213 0.6246950 0.6246950
vn -0.2402394 0.6863982 0.6863982
vn 0.0000000 0.7071068 0.7071068
vn 0.0000000 0.7071068 0.7071068
vn 0.2402394 0.6863982 0.6863982
vn 0.4685213 0.6246950 0.6246950
vn 0.5773503 0.5773503 0.5773503
vn -0.5773503 -0.5773503 -0.5773503
vn -0.6246950 -0.4685213 -0.6246950
vn -0.6863982 -0.2402394 -0.6863982
vn -0.7071068 0.0000000 -0.7071068
vn -0.7071068 0.0000000 -0.7071068
vn -0.6863982 0.2402394 -0.6863982
vn -0.6246950 0.4685213 -0.6246950
vn -0.5773503 0.5773503 -0.5773503
vn -0.4685213 -0.6246950 -0.6246950
vn -0.5144958 -0.5144958 -0.6859943
vn -0.5777784 -0.2696299 -0.7703712
vn -0.6000000 0.0000000 -0.8000000
vn -0.6000000 0.0000000 -0.8000000
vn -0.5777784 0.2696299 -0.7703712
vn -0.5144958 0.5144958 -0.6859943
vn -0.4685213 0.6246950 -0.6246950
vn -0.2402394 -0.6863982 -0.6863982
vn -0.2696299 -0.5777784 -0.7703712
vn -0.3136775 -0.3136775 -0.8962214
vn -0.3303504 0.0000000 -0.9438584
vn -0.3303504 0.0000000 -0.9438584
vn -0.3136775 0.3136775 -0.8962214
vn -0.2696299 0.5777784 -0.7703712
vn -0.2402394 0.6863982 -0.6863982
vn 0.0000000 -0.7071068 -0.7071068
vn 0.0000000 -0.6000000 -0.8000000
vn 0.0000000 -0.3303504 -0.9438584
vn 0.0000000 0.0000000 -1.0000000
vn 0.0000000 0.0000000 -1.0000000
vn 0.0000000 0.3303504 -0.9438584
vn 0.0000000 0.6000000 -0.8000000
vn 0.0000000 0.7071068 -0.7071068
vn 0.0000000 -0.7071068 -0.7071068
vn 0.0000000 -0.6000000 -0.8000000
vn 0.0000000 -0.3303504 -0.9438584
vn 0.0000000 0.0000000 -1.0000000
vn 0.0000000 0.0000000 -1.0000000
vn 0.0000000 0.3303504 -0.9438584
vn 0.0000000 0.6000000 -0.8000000
vn 0.0000000 0.7071068 -0.7071068
vn 0.2402394 -0.6863982 -0.6863982
vn 0.2696299 -0.5777784 -0.7703712
vn 0.3136775 -0.3136775 -0.8962214
vn 0.3303504 0.0000000 -0.9438584
vn 0.3303504 0.0000000 -0.9438584
vn 0.3136775 0.3136775 -0.8962214
vn 0.2696299 0.5777784 -0.7703712
vn 0.2402394 0.6863982 -0.6863982
vn 0.4685213 -0.6246950 -0.6246950
vn 0.5144958 -0.5144958 -0.6859943
vn 0.5777784 -0.2696299 -0.7703712
vn 0.6000000 0.0000000 -0.8000000
vn 0.6000000 0.0000000 -0.8000000
vn 0.5777784 0.2696299 -0.7703712
vn 0.5144958 0.5144958 -0.6859943
vn 0.4685213 0.6246950 -0.6246950
vn 0.5773503 -0.5773503 -0.5773503
vn 0.6246950 -0.4685213 -0.6246950
vn 0.6863982 -0.2402394 -0.6863982
vn 0.7071068 0.0000000 -0.7071068
vn 0.7071068 0.0000000 -0.7071068
vn 0.6863982 0.2402394 -0.6863982
vn 0.6246950 0.4685213 -0.6246950
vn 0.5773503 0.5773503 -0.5773503
vn -0.5773503 -0.5773503 0.5773503
vn -0.6246950 -0.4685213 0.6246950
vn -0.6863982 -0.2402394 0.6863982
vn -0.7071068 0.0000000 0.7071068
vn -0.7071068 0.0000000 0.7071068
vn -0.6863982 0.2402394 0.6863982
vn -0.6246950 0.4685213 0.6246950
vn -0.5773503 0.5773503 0.5773503
vn -0.4685213 -0.6246950 0.6246950
vn -0.5144958 -0.5144958 0.6859943
vn -0.5777784 -0.2696299 0.7703712
vn -0.6000000 0.0000000 0.8000000
vn -0.6000000 0.0000000 0.8000000
vn -0.5777784 0.2696299 0.7703712
vn -0.5144958 0.5144958 0.6859943
vn -0.4685213 0.6246950 0.6246950
vn -0.2402394 -0.6863982 0.6863982
vn -0.2696299 -0.5777784 0.7703712
vn -0.3136775 -0.3136775 0.8962214
vn -0.3303504 0.0000000 0.9438584
vn -0.3303504 0.0000000 0.9438584
vn -0.3136775 0.3136775 0.8962214
vn -0.2696299 0.5777784 0.7703712
vn -0.2402394 0.6863982 0.6863982
vn 0.0000000 -0.7071068 0.7071068
vn 0.0000000 -0.6000000 0.8000000
vn 0.0000000 -0.3303504 0.9438584
vn 0.0000000 0.0000000 1.0000000
vn 0.0000000 0.0000000 1.0000000
vn 0.0000000 0.3303504 0.9438584
vn 0.0000000 0.6000000 0.8000000
vn 0.0000000 0.7071068 0.7071068
vn 0.0000000 -0.7071068 0.7071068
vn 0.0000000 -0.6000000 0.8000000
vn 0.0000000 -0.3303504 0.9438584
vn 0.0000000 0.0000000 1.0000000
vn 0.0000000 0.0000000 1.0000000
vn 0.0000000 0.3303504 0.9438584
vn 0.0000000 0.6000000 0.8000000
vn 0.0000000 0.7071068 0.7071068
vn 0.2402394 -0.6863982 0.6863982
vn 0.2696299 -0.5777784 0.7703712
vn 0.3136775 -0.3136775 0.8962214
vn 0.3303504 0.0000000 0.9438584
vn 0.3303504 0.0000000 0.9438584
vn 0.3136775 0.3136775 0.8962214
vn 0.2696299 0.5777784 0.7703712
vn 0.2402394 0.6863982 0.6863982
vn 0.4685213 -0.6246950 0.6246950
vn 0.5144958 -0.5144958 0.6859943
vn 0.5777784 -0.2696299 0.7703712
vn 0.6000000 0.0000000 0.8000000
vn 0.6000000 0.0000000 0.8000000
vn 0.5777784 0.2696299 0.7703712
vn 0.5144958 0.5144958 0.6859943
vn 0.4685213 0.6246950 0.6246950
vn 0.5773503 -0.5773503 0.5773503
vn 0.6246950 -0.4685213 0.6246950
vn 0.6863982 -0.2402394 0.6863982
vn 0.7071068 0.0000000 0.7071068
vn 0.7071068 0.0000000 0.7071068
vn 0.6863982 0.2402394 0.6863982
vn 0.6246950 0.4685213 0.6246950
vn 0.5773503 0.5773503 0.5773503
f 2//2 10//10 9//9 1//1
f 3//3 11//11 10//10 2//2
f 4//4 12//12 11//11 3//3
f 5//5 13//13 12//12 4//4
f 6//6 14//14 13//13 5//5
f 7//7 15//15 14//14 6//6
f 8//8 16//16 15//15 7//7
f 10//10 18//18 17//17 9//9
f 11//11 19//19 18//18 10//10
f 12//12 20//20 19//19 11//11
f 13//13 21//21 20//20 12//12
f 14//14 22//22 21//21 13//13
f 15//15 23//23 22//22 14//14
f 16//16 24//24 23//23 15//15
f 18//18 26//26 25//25 17//17
f 19//19 27//27 26//26 18//18
f 20//20 28//28 27//27 19//19
f 21//21 29//29 28//28 20//20
f 22//22 30//30 29//29 21//21
f 23//23 31//31 30//30 22//22
f 24//24 32//32 31//31 23//23
f 26//26 34//34 33//33 25//25
f 27//27 35//35 34//34 26//26
f 28//28 36//36 35//35 27//27
f 29//29 37//37 36//36 28//28
f 30//30 38//38 37//37 29//29
f 31//31 39//39 38//38 30//30
f 32//32 40//40 39//39 31//31
f 34//34 42//42 41//41 33//33
f 35//35 43//43 42//42 34//34
f 36//36 44//44 43//43 35//35
f 37//37 45//45 44//44 36//36
f 38//38 46//46 45//45 37//37
f 39//39 47//47 46//46 38//38
f 40//40 48//48 47//47 39//39
f 42//42 50//50 49//49 41//41
f 43//43 51//51 50//50 42//42
f 44//44 52//52 51//51 43//43
f 45//45 53//53 52//52 44//44
f 46//46 54//54 53//53 45//45
f 47//47 55//55 54//54 46//46
f 48//48 56//56 55//55 47//47
f 50//50 58//58 57//57 49//49
f 51//51 59//59 58//58 50//50
f 52//52 60//60 59//59 51//51
f 53//53 61//61 60//60 52//52
f 54//54 62//62 61//61 53//53
f 55//55 63//63 62//62 54//54
f 56//56 64//64 63//63 55//55
f 65//65 73//73 74//74 66//66
f 66//66 74//74 75//75 67//67
f 67//67 75//75 76//76 68//68
f 68//68 76//76 77//77 69//69
f 69//69 77//77 78//78 70//70
f 70//70 78//78 79//79 71//71
f 71//71 79//79 80//80 72//72
f 73//73 81//81 82//82 74//74
f 74//74 82//82 83//83 75//75
f 75//75 83//83 84//84 76//76
f 76//76 84//84 85//85 77//77
f 77//77 85//85 86//86 78//78
f 78//78 86//86 87//87 79//79
f 79//79 87//87 88//88 80//80
f 81//81 89//89 90//90 82//82
f 82//82 90//90 91//91 83//83
f 83//83 91//91 92//92 84//84
f 84//84 92//92 93//93 85//85
f 85//85 93//93 94//94 86//86
f 86//86 94//94 95//95 87//87
f 87//87 95//95 96//96 88//88
f 89//89 97//97 98//98 90//90
f 90//90 98//98 99//99 91//91
f 91//91 99//99 100//100 92//92
f 92//92 100//100 101//101 93//93
f 93//93 101//101 102//102 94//94
f 94//94 102//102 103//103 95//95
f 95//95 103//103 104//104 96//96
f 97//97 105//105 106//106 98//98
f 98//98 106//106 107//107 99//99
f 99//99 107//107 108//108 100//100
f 100//100 108//108 109//109 101//101
f 101//101 109//109 110//110 102//102
f 102//102 110//110 111//111 103//103
f 103//103 111//111 112//112 104//104
f 105//105 113//113 114//114 106//106
f 106//106 114//114 115//115 107//107
f 107//107 115//115 116//116 108//108
f 108//108 116//116 117//117 109//109
f 109//109 117//117 118//118 110//110
f 110//110 118//118 119//119 111//111
f 111//111 119//119 120//120 112//112
f 113//113 121//121 122//122 114//114
f 114//114 122//122 123//123 115//115
f 115//115 123//123 124//124 116//116
f 116//116 124//124 125//125 117//117
f 117//117 125//125 126//126 118//118
f 118//118 126//126 127//127 119//119
f 119//119 127//127 128//128 120//120
f 130//130 138//138 137//137 129//129
f 131//131 139//139 138//138 130//130
f 132//132 140//140 139//139 131//131
f 133//133 141//141 140//140 132//132
f 134//134 142//142 141//141 133//133
f 135//135 143//143 142//142 134//134
f 136//136 144//144 143//143 135//135
f 138//138 146//146 145//145 137//137
f 139//139 147//147 146//146 138//138
f 140//140 148//148 147//147 139//139
f 141//141 149//149 148//148 140//140
f 142//142 150//150 149//149 141//141
f 143//143 151//151 150//150 142//142
f 144//144 152//152 151//151 143//143
f 146//146 154//154 153//153 145//145
f 147//147 155//155 154//154 146//146
f 148//148 156//156 155//155 147//147
f 149//149 157//157 156//156 148//148
f 150//150 158//158 157//157 149//149
f 151//151 159//159 158//158 150//150
f 152//152 160//160 159//159 151//151
f 154//154 162//162 161//161 153//153
f 155//155 163//163 162//162 154//154
f 156//156 164//164 163//163 155//155
f 157//157 165//165 164//164 156//156
f 158//158 166//166 165//165 157//157
f 159//159 167//167 166//166 158//158
f 160//160 168//168 167//167 159//159
f 162//162 170//170 169//169 161//161
f 163//163 171//171 170//170 162//162
f 164//164 172//172 171//171 163//163
f 165//165 173//173 172//172 164//164
f 166//166 174//174 173//173 165//165
f 167//167 175//175 174//174 166//166
f 168//168 176//176 175//175 167//167
f 170//170 178//178 177//177 169//169
f 171//171 179//179 178//178 170//170
f 172//172 180//180 179//179 171//171
f 173//173 181//181 180//180 172//172
f 174//174 182//182 181//181 173//173
f 175//175 183//183 182//182 174//174
f 176//176 184//184 183//183 175//175
f 178//178 186//186 185//185 177//177
f 179//179 187//187 186//186 178//178
f 180//180 188//188 187//187 179//179
f 181//181 189//189 188//188 180//180
f 182//182 190//190 189//189 181//181
f 183//183 191//191 190//190 182//182
f 184//184 192//192 191//191 183//183
f 193//193 201//201 202//202 194//194
f 194//194 202//202 203//203 195//195
f 195//195 203//203 204//204 196//196
f 196//196 204//204 205//205 197//197
f 197//197 205//205 206//206 198//198
f 198//198 206//206 207//207 199//199
f 199//199 207//207 208//208 200//200
f 201//201 209//209 210//210 202//202
f 202//202 210//210 211//211 203//203
f 203//203 211//211 212//212 204//204
f 204//204 212//212 213//213 205//205
f 205//205 213//213 214//214 206//206
f 206//206 214//214 215//215 207//207
f 207//207 215//215 216//216 208//208
f 209//209 217//217 218//218 210//210
f 210//210 218//218 219//219 211//211
f 211//211 219//219 220//220 212//212
f 212//212 220//220 221//221 213//213
f 213//213 221//221 222//222 214//214
f 214//214 222//222 223//223 215//215
f 215//215 223//223 224//224 216//216
f 217//217 225//225 226//226 218//218
f 218//218 226//226 227//227 219//219
f 219//219 227//227 228//228 220//220
f 220//220 228//228 229//229 221//221
f 221//221 229//229 230//230 222//222
f 222//222 230//230 231//231 223//223
f 223//223 231//231 232//232 224//224
f 225//225 233//233 234//234 226//226
f 226//226 234//234 235//235 227//227
f 227//227 235//235 236//236 228//228
f 228//228 236//236 237//237 229//229
f 229//229 237//237 238//238 230//230
f 230//230 238//238 239//239 231//231
f 231//231 239//239 240//240 232//232
f 233//233 241//241 242//242 234//234
f 234//234 242//242 243//243 235//235
f 235//235 243//243 244//244 236//236
f 236//236 244//244 245//245 237//237
f 237//237 245//245 246//246 238//238
f 238//238 246//246 247//247 239//239
f 239//239 247//247 248//248 240//240
f 241//241 249//249 250//250 242//242
f 242//242 250//250 251//251 243//243
f 243//243 251//251 252//252 244//244
f 244//244 252//252 253//253 245//245
f 245//245 253//253 254//254 246//246
f 246//246 254//254 255//255 247//247
f 247//247 255//255 256//256 248//248
f 258//258 266//266 265//265 257//257
f 259//259 267//267 266//266 258//258
f 260//260 268//268 267//267 259//259
f 261//261 269//269 268//268 260//260
f 262//262 270//270 269//269 261//261
f 263//263 271//271 270//270 262//262
f 264//264 272//272 271//271 263//263
f 266//266 274//274 273//273 265//265
f 267//267 275//275 274//274 266//266
f 268//268 276//276 275//275 267//267
f 269//269 277//277 276//276 268//268
f 270//270 278//278 277//277 269//269
f 271//271 279//279 278//278 270//270
f 272//272 280//280 279//279 271//271
f 274//274 282//282 281//281 273//273
f 275//275 283//283 282//282 274//274
f 276//276 284//284 283//283 275//275
f 277//277 285//285 284//284 276//276
f 278//278 286//286 285//285 277//277
f 279//279 287//287 286//286 278//278
f 280//280 288//288 287//287 279//279
f 282//282 290//290 289//289 281//281
f 283//283 291//291 290//290 282//282
f 284//284 292//292 291//291 283//283
f 285//285 293//293 292//292 284//284
f 286//286 294//294 293//293 285//285
f 287//287 295//295 294//294 286//286
f 288//288 296//296 295//295 287//287
f 290//290 298//298 297//297 289//289
f 291//291 299//299 298//298 290//290
f 292//292 300//300 299//299 291//291
f 293//293 301//301 300//300 292//292
f 294//294 302//302 301//301 293//293
f 295//295 303//303 302//302 294//294
f 296//296 304//304 303//303 295//295
f 298//298 306//306 305//305 297//297
f 299//299 307//307 306//306 298//298
f 300//300 308//308 307//307 299//299
f 301//301 309//309 308//308 300//300
f 302//302 310//310 309//309 301//301
f 303//303 311//311 310//310 302//302
f 304//304 312//312 311//311 303//303
f 306//306 314//314 313//313 305//305
f 307//307 315//315 314//314 306//306
f 308//308 316//316 315//315 307//307
f 309//309 317//317 316//316 308//308
f 310//310 318//318 317//317 309//309
f 311//311 319//319 318//318 310//310
f 312//312 320//320 319//319 311//311
f 321//321 329//329 330//330 322//322
f 322//322 330//330 331//331 323//323
f 323//323 331//331 332//332 324//324
f 324//324 332//332 333//333 325//325
f 325//325 333//333 334//334 326//326
f 326//326 334//334 335//335 327//327
f 327//327 335//335 336//336 328//328
f 329//329 337//337 338//338 330//330
f 330//330 338//338 339//339 331//331
f 331//331 339//339 340//340 332//332
f 332//332 340//340 341//341 333//333
f 333//333 341//341 342//342 334//334
f 334//334 342//342 343//343 335//335
f 335//335 343//343 344//344 336//336
f 337//337 345//345 346//346 338//338
f 338//338 346//346 347//347 339//339
f 339//339 347//347 348//348 340//340
f 340//340 348//348 349//349 341//341
f 341//341 349//349 350//350 342//342
f 342//342 350//350 351//351 343//343
f 343//343 351//351 352//352 344//344
f 345//345 353//353 354//354 346//346
f 346//346 354//354 355//355 347//347
f 347//347 355//355 356//356 348//348
f 348//348 356//356 357//357 349//349
f 349//349 357//357 358//358 350//350
f 350//350 358//358 359//359 351//351
f 351//351 359//359 360//360 352//352
f 353//353 361//361 362//362 354//354
f 354//354 362//362 363//363 355//355
f 355//355 363//363 364//364 356//356
f 356//356 364//364 365//365 357//357
f 357//357 365//365 366//366 358//358
f 358//358 366//366 367//367 359//359
f 359//359 367//367 368//368 360//360
f 361//361 369//369 370//370 362//362
f 362//362 370//370 371//371 363//363
f 363//363 371//371 372//372 364//364
f 364//364 372//372 373//373 365//365
f 365//365 373//373 374//374 366//366
f 366//366 374//374 375//375 367//367
f 367//367 375//375 376//376 368//368
f 369//369 377//377 378//378 370//370
f 370//370 378//378 379//379 371//371
f 371//371 379//379 380//380 372//372
f 372//372 380//380 381//381 373//373
f 373//373 381//381 382//382 374//374
f 374//374 382//382 383//383 375//375
f 375//375 383//383 384//384 376//376
