v 0.0 0 0.0
v 0.005833333333333334 0 0.014610274296209293
v 0.011666666666666667 0 0.02318221983093764
v 0.0175 0 0.022173108780270883
v 0.023333333333333334 0 0.012000000000000009
v 0.02916666666666667 0 -0.0031326286132812423
v 0.035 0 -0.01697056274847714
v 0.04083333333333334 0 -0.02379467667297145
v 0.04666666666666667 0 -0.020784609690826537
v 0.052500000000000005 0 -0.00918440237676217
v 0.05833333333333334 0 0.006211657082460506
v 0.06416666666666666 0 0.01904048016698964
v 0.07 0 0.024
v 0.07583333333333334 0 0.019040480166989674
v 0.08166666666666668 0 0.006211657082460499
v 0.08750000000000001 0 -0.009184402376762156
v 0.09333333333333334 0 -0.02078460969082651
v 0.09916666666666668 0 -0.02379467667297145
v 0.10500000000000001 0 -0.016970562748477164
v 0.11083333333333334 0 -0.003132628613281267
v 0.11666666666666668 0 0.012000000000000014
v 0.12250000000000001 0 0.022173108780270873
v 0.12833333333333333 0 0.023182219830937646
v 0.13416666666666668 0 0.01461027429620931
v 0.14 0 1.469576158976824e-17
v 0.14583333333333337 0 -0.014610274296209286
v 0.15166666666666667 0 -0.023182219830937614
v 0.15750000000000003 0 -0.022173108780270886
v 0.16333333333333336 0 -0.012000000000000004
v 0.16916666666666666 0 0.003132628613281154
v 0.17500000000000002 0 0.016970562748477143
v 0.18083333333333337 0 0.02379467667297144
v 0.18666666666666668 0 0.020784609690826565
v 0.1925 0 0.009184402376762223
v 0.19833333333333336 0 -0.006211657082460512
v 0.20416666666666666 0 -0.019040480166989657
v 0.21000000000000002 0 -0.024
v 0.21583333333333338 0 -0.01904048016698968
v 0.22166666666666668 0 -0.0062116570824605555
v 0.22750000000000004 0 0.009184402376762182
v 0.23333333333333336 0 0.020784609690826544
v 0.23916666666666667 0 0.023794676672971457
v 0.24500000000000002 0 0.016970562748477174
v 0.25083333333333335 0 0.003132628613281282
v 0.25666666666666665 0 -0.011999999999999964
v 0.2625 0 -0.02217310878027087
v 0.26833333333333337 0 -0.02318221983093765
v 0.27416666666666667 0 -0.01461027429620932
v 0.28 0 -2.939152317953648e-17
v 0.0 1.76 0.0
v 0.005833333333333334 1.76 0.014610274296209293
v 0.011666666666666667 1.76 0.02318221983093764
v 0.0175 1.76 0.022173108780270883
v 0.023333333333333334 1.76 0.012000000000000009
v 0.02916666666666667 1.76 -0.0031326286132812423
v 0.035 1.76 -0.01697056274847714
v 0.04083333333333334 1.76 -0.02379467667297145
v 0.04666666666666667 1.76 -0.020784609690826537
v 0.052500000000000005 1.76 -0.00918440237676217
v 0.05833333333333334 1.76 0.006211657082460506
v 0.06416666666666666 1.76 0.01904048016698964
v 0.07 1.76 0.024
v 0.07583333333333334 1.76 0.019040480166989674
v 0.08166666666666668 1.76 0.006211657082460499
v 0.08750000000000001 1.76 -0.009184402376762156
v 0.09333333333333334 1.76 -0.02078460969082651
v 0.09916666666666668 1.76 -0.02379467667297145
v 0.10500000000000001 1.76 -0.016970562748477164
v 0.11083333333333334 1.76 -0.003132628613281267
v 0.11666666666666668 1.76 0.012000000000000014
v 0.12250000000000001 1.76 0.022173108780270873
v 0.12833333333333333 1.76 0.023182219830937646
v 0.13416666666666668 1.76 0.01461027429620931
v 0.14 1.76 1.469576158976824e-17
v 0.14583333333333337 1.76 -0.014610274296209286
v 0.15166666666666667 1.76 -0.023182219830937614
v 0.15750000000000003 1.76 -0.022173108780270886
v 0.16333333333333336 1.76 -0.012000000000000004
v 0.16916666666666666 1.76 0.003132628613281154
v 0.17500000000000002 1.76 0.016970562748477143
v 0.18083333333333337 1.76 0.02379467667297144
v 0.18666666666666668 1.76 0.020784609690826565
v 0.1925 1.76 0.009184402376762223
v 0.19833333333333336 1.76 -0.006211657082460512
v 0.20416666666666666 1.76 -0.019040480166989657
v 0.21000000000000002 1.76 -0.024
v 0.21583333333333338 1.76 -0.01904048016698968
v 0.22166666666666668 1.76 -0.0062116570824605555
v 0.22750000000000004 1.76 0.009184402376762182
v 0.23333333333333336 1.76 0.020784609690826544
v 0.23916666666666667 1.76 0.023794676672971457
v 0.24500000000000002 1.76 0.016970562748477174
v 0.25083333333333335 1.76 0.003132628613281282
v 0.25666666666666665 1.76 -0.011999999999999964
v 0.2625 1.76 -0.02217310878027087
v 0.26833333333333337 1.76 -0.02318221983093765
v 0.27416666666666667 1.76 -0.01461027429620932
v 0.28 1.76 -2.939152317953648e-17
f 1 2 51 50
f 2 3 52 51
f 3 4 53 52
f 4 5 54 53
f 5 6 55 54
f 6 7 56 55
f 7 8 57 56
f 8 9 58 57
f 9 10 59 58
f 10 11 60 59
f 11 12 61 60
f 12 13 62 61
f 13 14 63 62
f 14 15 64 63
f 15 16 65 64
f 16 17 66 65
f 17 18 67 66
f 18 19 68 67
f 19 20 69 68
f 20 21 70 69
f 21 22 71 70
f 22 23 72 71
f 23 24 73 72
f 24 25 74 73
f 25 26 75 74
f 26 27 76 75
f 27 28 77 76
f 28 29 78 77
f 29 30 79 78
f 30 31 80 79
f 31 32 81 80
f 32 33 82 81
f 33 34 83 82
f 34 35 84 83
f 35 36 85 84
f 36 37 86 85
f 37 38 87 86
f 38 39 88 87
f 39 40 89 88
f 40 41 90 89
f 41 42 91 90
f 42 43 92 91
f 43 44 93 92
f 44 45 94 93
f 45 46 95 94
f 46 47 96 95
f 47 48 97 96
f 48 49 98 97
